<?xml version="1.0" encoding="UTF-8" standalone="no"?> <svg xmlns:inkscape="http://www.inkscape.org/namespaces/inkscape" xmlns:sodipodi="http://sodipodi.sourceforge.net/DTD/sodipodi-0.dtd" xmlns="http://www.w3.org/2000/svg" xmlns:svg="http://www.w3.org/2000/svg" version="1.1" id="svg2" xml:space="preserve" width="1000" height="666.66669" viewBox="0 0 1000 666.66669" sodipodi:docname="bg_lomba_web.ai"><defs id="defs6"><clipPath id="clipPath18"><path d="M 0,500 H 750 V 0 H 0 Z" id="path16"></path></clipPath></defs><g id="g8" inkscape:groupmode="layer" inkscape:label="bg_lomba_web" transform="matrix(1.3333333,0,0,-1.3333333,0,666.66667)"><path d="M 0,0 H 750 V 500 H 0 Z" style="fill:#fef4df;fill-opacity:1;fill-rule:nonzero;stroke:none" id="path10"></path><g id="g12"><g id="g14" clip-path="url(#clipPath18)"><g id="g20" transform="translate(82.0153,430.3244)"><path d="m 0,0 c 25.241,-1.242 35.172,-31.035 72,-28.552 36.828,2.483 43.451,28.509 61.655,19.863 16.552,-7.863 -2.847,-34.279 6.621,-41.38 9.931,-7.448 27.724,3.724 28.138,36.414 C 168.885,23.585 149.379,29.379 132,23.586 114.621,17.793 100.965,5.793 67.035,24.828 33.104,43.862 -1.655,64.552 -36.414,24 c -34.758,-40.552 -19.862,-88.138 -7.448,-107.586 10.378,-16.26 25.241,-25.242 35.172,-14.897 9.526,9.923 -6.163,20.297 -14.069,36.828 C -36.414,-33.104 -25.242,1.241 0,0" style="fill:#ff7b4a;fill-opacity:1;fill-rule:nonzero;stroke:none" id="path22"></path></g><g id="g24" transform="translate(111.5026,349.7131)"><path d="m 0,0 c 1.053,3.892 0,7.79 -1.37,11.467 1.245,-0.131 2.478,-0.089 3.766,0.103 1.947,0.292 3.832,0.536 5.671,1.281 3.069,1.243 6.993,3.935 7.153,7.603 0.176,4.012 -4.143,5.844 -7.542,5.436 -2.909,-0.35 -5.821,-1.774 -8.382,-3.483 0.837,2.336 1.21,4.852 1.114,7.308 -0.122,3.105 -0.454,6.198 -2.522,8.675 -2.075,2.485 -5.796,3.899 -8.42,1.366 -2.476,-2.389 -2.942,-6.695 -2.783,-9.941 0.147,-2.984 0.876,-5.848 2.011,-8.563 -1.35,1.001 -2.821,1.838 -4.431,2.494 -3.143,1.279 -7.141,2.313 -10.428,0.999 -2.821,-1.128 -4.391,-4.058 -3.255,-6.96 1.261,-3.223 4.581,-4.454 7.757,-4.912 3.336,-0.48 6.864,-0.815 10.212,-0.199 -0.608,-0.62 -1.166,-1.288 -1.669,-2.064 -0.946,-1.458 -1.671,-3.081 -2.135,-4.756 -0.894,-3.225 -0.913,-7.527 1.094,-10.367 1.751,-2.478 5.038,-3.252 7.871,-2.455 C -3.051,-6.056 -0.852,-3.149 0,0" style="fill:#3c3973;fill-opacity:1;fill-rule:nonzero;stroke:none" id="path26"></path></g><g id="g28" transform="translate(182.276,364.2009)"><path d="m 0,0 c 0.502,2.676 -1.227,4.771 -3.804,5.248 -2.511,0.465 -5.377,-0.267 -7.769,-0.981 -1.48,-0.442 -2.969,-1.129 -4.325,-2.013 0.835,2 1.426,4.091 1.664,6.288 0.351,3.236 0.138,7.165 -1.965,9.827 -2.169,2.746 -5.931,2.673 -8.407,0.354 -2.715,-2.544 -2.873,-6.858 -2.328,-10.287 0.305,-1.916 0.964,-3.741 1.896,-5.414 -4.025,1.378 -8.308,1.725 -12.142,-0.549 -2.688,-1.595 -4.782,-4.666 -2.859,-7.669 1.719,-2.684 5.157,-3.988 8.18,-4.43 2.186,-0.32 4.463,-0.176 6.629,0.374 -1.023,-1.627 -1.798,-3.393 -2.159,-5.337 -0.638,-3.441 -0.398,-7.369 1.952,-10.146 2.231,-2.639 5.967,-3.391 8.896,-1.437 3.082,2.054 4.101,5.77 4.174,9.291 0.077,3.65 -0.878,6.983 -2.561,10.108 2.744,-0.287 5.436,-0.409 8.163,0.429 C -3.825,-5.441 -0.604,-3.22 0,0" style="fill:#3c3973;fill-opacity:1;fill-rule:nonzero;stroke:none" id="path30"></path></g><g id="g32" transform="translate(222.6676,331.0075)"><path d="m 0,0 c -1.479,3.528 -5.39,4.657 -8.9,4.079 -3.212,-0.529 -6.413,-2.038 -9.15,-3.951 1.217,6.883 1.774,14.973 -4.001,19.86 -1.303,1.103 -2.947,1.916 -4.635,1.161 -1.647,-0.736 -2.576,-2.491 -3.225,-4.082 -1.476,-3.623 -1.372,-7.806 -0.156,-11.489 0.463,-1.404 1.094,-2.79 1.854,-4.109 -4.468,1.558 -9.459,1.741 -13.226,-1.074 -2.768,-2.068 -3.54,-5.519 -1.644,-8.483 1.775,-2.777 5.033,-4.108 8.226,-4.268 2.558,-0.129 5.021,0.531 7.376,1.497 -0.741,-1.414 -1.281,-2.949 -1.675,-4.541 -0.878,-3.546 -1.654,-7.871 0.573,-11.089 1.942,-2.808 5.503,-3.608 8.323,-1.573 2.908,2.099 4.337,5.893 5.155,9.249 0.883,3.625 1.171,7.536 0.607,11.26 1.212,-0.365 2.469,-0.565 3.757,-0.633 2.112,-0.112 4.434,-0.127 6.469,0.534 C -1.03,-6.599 1.445,-3.444 0,0" style="fill:#3c3973;fill-opacity:1;fill-rule:nonzero;stroke:none" id="path34"></path></g><g id="g36" transform="translate(141.1354,321.2526)"><path d="m 0,0 c -2.467,-0.38 -4.814,-1.335 -6.883,-2.712 1.15,3.164 1.901,6.515 1.717,9.812 -0.228,4.121 -2.057,8.878 -6.318,10.275 -4.02,1.319 -7.504,-1.396 -8.672,-5.151 -1.109,-3.566 -0.718,-7.658 0.665,-11.09 0.388,-0.964 0.858,-1.882 1.405,-2.736 -1.951,0.87 -3.993,1.519 -6.036,1.901 -2.953,0.554 -6.674,0.428 -9.246,-1.307 -3.198,-2.157 -2.414,-5.934 -0.405,-8.676 2.202,-3.007 5.705,-4.474 9.355,-4.687 2.053,-0.12 4.087,0.145 6.02,0.739 -1.699,-2.378 -2.933,-5.09 -3.376,-7.946 -0.656,-4.232 0.779,-9.535 5.261,-11.053 3.529,-1.195 7.171,1.092 8.982,4.052 1.662,2.717 1.891,6.481 1.935,9.581 0.031,2.142 -0.01,4.649 -0.726,6.815 1.996,-0.62 4.115,-0.914 6.163,-1.057 3.058,-0.214 6.445,-0.072 8.894,2.03 2.471,2.12 2.412,5.865 0.536,8.354 C 7.035,0.106 3.437,0.529 0,0" style="fill:#3c3973;fill-opacity:1;fill-rule:nonzero;stroke:none" id="path38"></path></g><g id="g40" transform="translate(78.7623,301.0324)"><path d="m 0,0 c -2.33,-0.601 -4.7,-1.528 -6.74,-2.889 0.906,2.806 1.426,5.721 1.466,8.71 0.053,3.994 -0.574,9.048 -4.5,11.144 -1.622,0.867 -3.586,1.111 -5.276,0.288 -1.734,-0.844 -2.755,-2.548 -3.391,-4.302 -1.525,-4.21 -1.553,-9.24 0.123,-13.402 0.104,-0.258 0.214,-0.515 0.332,-0.767 -3.097,1.015 -6.323,1.424 -9.451,0.584 -3.608,-0.969 -7.231,-4.345 -7.128,-8.325 0.122,-4.69 5.62,-6.245 9.411,-6.68 2.627,-0.301 5.272,-0.356 7.878,0.154 1.015,0.198 2,0.506 2.971,0.855 -3.352,-5.032 -5.261,-12.212 -0.52,-16.224 2.729,-2.309 6.333,-1.836 8.79,0.619 2.505,2.503 3.659,6.16 3.954,9.613 0.282,3.288 -0.375,6.49 -1.754,9.407 3.59,-1.347 7.576,-1.528 11.275,-0.355 2.01,0.637 4.28,1.594 5.33,3.552 0.676,1.264 1.113,3.183 0.855,4.607 C 12.548,2.508 4.053,1.044 0,0" style="fill:#3c3973;fill-opacity:1;fill-rule:nonzero;stroke:none" id="path42"></path></g><g id="g44" transform="translate(215.8029,227.6745)"><path d="m 0,0 c -1.042,14.613 -4.026,29.423 -9.574,43.02 -2.489,6.103 -5.709,12.081 -10.884,16.332 -4.748,3.901 -11.641,6.91 -17.853,5.069 -6.388,-1.893 -8.763,-9.44 -10.397,-15.163 -1.904,-6.665 -2.6,-13.673 -3.015,-20.571 -0.826,-13.72 -0.141,-28.108 -4.623,-41.301 -1.063,-3.127 -2.692,-6.297 -5.608,-8.061 -2.751,-1.664 -5.999,-1.81 -8.51,0.38 -2.598,2.265 -3.633,5.684 -4.023,9.003 -0.434,3.705 -0.336,7.468 -0.333,11.19 0.008,7.729 0.248,15.423 0.883,23.128 0.509,6.163 1.025,12.583 -0.837,18.584 -1.76,5.67 -5.841,10.028 -11.552,11.796 -5.689,1.761 -11.818,0.518 -16.357,-3.319 -11.171,-9.443 -8.452,-25.818 -7.293,-38.597 0.719,-7.911 1.296,-15.83 1.883,-23.751 0.289,-3.905 0.654,-7.814 0.789,-11.729 0.107,-3.11 -0.055,-6.351 -1.812,-9.025 -2.618,-3.985 -8.103,-6.001 -12.692,-4.803 -5.698,1.486 -8.599,7.549 -9.297,12.953 -0.925,7.156 1.274,14.272 1.863,21.361 0.529,6.357 -0.137,13.409 -4.557,18.378 -8.852,9.949 -23.152,2.157 -27.392,-8.041 -2.685,-6.46 -3.065,-13.679 -3.49,-20.577 -0.454,-7.378 -0.136,-14.787 0.86,-22.109 1.847,-13.573 5.891,-27.287 12.904,-39.124 14.165,-23.907 43.945,-36.609 70.99,-36.423 13.335,0.09 26.769,3.409 38.243,10.299 21.114,12.679 33.399,35.665 38.691,59.107 C 0.106,-28.269 1,-14.023 0,0" style="fill:#157fc2;fill-opacity:1;fill-rule:nonzero;stroke:none" id="path46"></path></g><g id="g48" transform="translate(219.8976,53.1901)"><path d="m 0,0 c -1.552,12.243 -9.946,23.999 -22.474,26.652 -9.671,2.049 -20.017,0.815 -29.71,-0.416 -10.53,-1.338 -21.031,-2.549 -31.623,-3.318 -11.276,-0.818 -22.61,-1.22 -33.905,-0.52 -11.679,0.725 -24.619,4.776 -32.222,14.445 -9.477,12.051 -7.233,29.02 -10.502,43.156 -0.835,3.612 -2.398,7.775 -6.179,9.171 -4.16,1.536 -8.361,-1.45 -10.232,-5.036 -1.098,-2.107 -1.613,-4.446 -2.056,-6.762 -0.477,-2.494 -0.875,-5.002 -1.209,-7.518 -0.685,-5.165 -1.069,-10.367 -1.143,-15.576 -0.287,-20.078 3.793,-40.889 12.77,-58.932 4.063,-8.166 9.803,-15.585 17.981,-19.933 7.559,-4.018 16.326,-5.392 24.809,-4.775 4.333,0.315 8.639,1.106 12.796,2.366 4.797,1.454 9.301,3.815 14.197,4.947 10.078,2.329 20.323,-1.217 29.858,-4.21 8.373,-2.629 16.779,-4.603 25.526,-5.447 8.142,-0.785 16.748,-0.782 24.623,1.695 6.547,2.06 12.242,6.252 15.577,12.322 C -0.173,-12.331 0.765,-6.03 0,0" style="fill:#fcb62b;fill-opacity:1;fill-rule:nonzero;stroke:none" id="path50"></path></g><g id="g52" transform="translate(78.0148,99.3259)"><path d="M 0,0 C 0.156,-1.385 0.719,-2.792 1.836,-3.626 2.499,-4.121 3.311,-4.383 4.128,-4.511 5.82,-4.775 7.708,-4.426 8.88,-3.177 11.118,-0.789 9.794,4.596 6.777,5.849 2.865,7.474 -0.418,3.727 0,0" style="fill:#3c3973;fill-opacity:1;fill-rule:nonzero;stroke:none" id="path54"></path></g><g id="g56" transform="translate(102.8576,99.9587)"><path d="m 0,0 c 0.036,-0.843 0.189,-1.746 0.788,-2.339 0.684,-0.677 1.746,-0.758 2.708,-0.749 1.09,0.011 2.222,0.097 3.173,0.629 1.844,1.033 2.447,3.654 1.502,5.544 C 7.334,4.759 4.761,6.482 2.79,6.084 0.22,5.564 -0.091,2.13 0,0" style="fill:#3c3973;fill-opacity:1;fill-rule:nonzero;stroke:none" id="path58"></path></g><g id="g60" transform="translate(128.6554,96.947)"><path d="M 0,0 C 1.696,-1.014 3.947,-0.907 5.647,0.1 9.654,2.472 6.555,8.276 2.616,8.445 -1.999,8.644 -4.108,2.455 0,0" style="fill:#3c3973;fill-opacity:1;fill-rule:nonzero;stroke:none" id="path62"></path></g><g id="g64" transform="translate(152.0885,105.4011)"><path d="m 0,0 c -0.758,-0.842 -0.939,-2.049 -0.97,-3.181 -0.031,-1.152 0.089,-2.388 0.817,-3.281 0.869,-1.064 2.373,-1.357 3.746,-1.358 1.045,-0.002 2.158,0.153 2.952,0.833 0.431,0.37 0.735,0.872 0.938,1.403 C 9.036,-1.526 3.473,3.858 0,0" style="fill:#3c3973;fill-opacity:1;fill-rule:nonzero;stroke:none" id="path66"></path></g><g id="g68" transform="translate(183.3659,104.4948)"><path d="M 0,0 C -1.106,2.711 -4.879,3.097 -6.77,0.968 -9.321,-1.906 -6.382,-6.604 -2.661,-5.518 -0.453,-4.872 0.87,-2.132 0,0" style="fill:#3c3973;fill-opacity:1;fill-rule:nonzero;stroke:none" id="path70"></path></g><g id="g72" transform="translate(198.7038,84.235)"><path d="M 0,0 C -0.156,1.385 -0.719,2.792 -1.835,3.626 -2.499,4.122 -3.311,4.383 -4.128,4.511 -5.82,4.775 -7.708,4.427 -8.88,3.178 -11.118,0.79 -9.794,-4.596 -6.777,-5.849 -2.865,-7.473 0.418,-3.726 0,0" style="fill:#3c3973;fill-opacity:1;fill-rule:nonzero;stroke:none" id="path74"></path></g><g id="g76" transform="translate(173.861,83.6032)"><path d="M 0,0 C -0.036,0.842 -0.189,1.746 -0.788,2.339 -1.472,3.016 -2.534,3.096 -3.496,3.087 -4.586,3.077 -5.718,2.991 -6.669,2.458 -8.513,1.426 -9.116,-1.195 -8.171,-3.086 -7.334,-4.76 -4.761,-6.483 -2.79,-6.085 -0.22,-5.564 0.091,-2.131 0,0" style="fill:#3c3973;fill-opacity:1;fill-rule:nonzero;stroke:none" id="path78"></path></g><g id="g80" transform="translate(148.0631,86.6149)"><path d="M 0,0 C -1.696,1.014 -3.947,0.906 -5.647,-0.101 -9.654,-2.473 -6.555,-8.277 -2.615,-8.446 1.999,-8.644 4.108,-2.455 0,0" style="fill:#3c3973;fill-opacity:1;fill-rule:nonzero;stroke:none" id="path82"></path></g><g id="g84" transform="translate(124.63,78.1599)"><path d="M 0,0 C 0.758,0.842 0.939,2.049 0.97,3.182 1.001,4.333 0.881,5.57 0.152,6.463 -0.716,7.526 -2.22,7.819 -3.593,7.821 -4.638,7.822 -5.752,7.668 -6.544,6.987 -6.976,6.617 -7.28,6.115 -7.483,5.585 -9.036,1.526 -3.473,-3.858 0,0" style="fill:#3c3973;fill-opacity:1;fill-rule:nonzero;stroke:none" id="path86"></path></g><g id="g88" transform="translate(93.3522,79.0671)"><path d="M 0,0 C 1.107,-2.711 4.88,-3.098 6.771,-0.968 9.322,1.906 6.383,6.604 2.662,5.518 0.453,4.872 -0.87,2.131 0,0" style="fill:#3c3973;fill-opacity:1;fill-rule:nonzero;stroke:none" id="path90"></path></g><g id="g92" transform="translate(107.6012,60.4987)"><path d="M 0,0 C 0.155,-1.385 0.719,-2.792 1.835,-3.626 2.498,-4.122 3.311,-4.383 4.128,-4.511 5.82,-4.775 7.708,-4.427 8.879,-3.178 11.118,-0.79 9.794,4.596 6.777,5.849 2.864,7.473 -0.418,3.726 0,0" style="fill:#3c3973;fill-opacity:1;fill-rule:nonzero;stroke:none" id="path94"></path></g><g id="g96" transform="translate(132.444,61.1306)"><path d="m 0,0 c 0.036,-0.842 0.188,-1.746 0.788,-2.339 0.684,-0.677 1.745,-0.757 2.708,-0.748 1.09,0.011 2.222,0.096 3.173,0.629 1.844,1.032 2.447,3.653 1.502,5.544 C 7.334,4.76 4.761,6.483 2.79,6.085 0.22,5.565 -0.091,2.131 0,0" style="fill:#3c3973;fill-opacity:1;fill-rule:nonzero;stroke:none" id="path98"></path></g><g id="g100" transform="translate(158.2413,58.1198)"><path d="M 0,0 C 1.697,-1.015 3.947,-0.907 5.647,0.1 9.654,2.472 6.555,8.276 2.616,8.445 -1.999,8.643 -4.108,2.455 0,0" style="fill:#3c3973;fill-opacity:1;fill-rule:nonzero;stroke:none" id="path102"></path></g><g id="g104" transform="translate(181.6745,66.5739)"><path d="m 0,0 c -0.758,-0.842 -0.938,-2.049 -0.97,-3.182 -0.031,-1.151 0.089,-2.388 0.818,-3.281 0.869,-1.063 2.372,-1.356 3.746,-1.358 1.044,-0.001 2.158,0.154 2.951,0.834 0.432,0.37 0.735,0.872 0.938,1.402 C 9.036,-1.526 3.474,3.858 0,0" style="fill:#3c3973;fill-opacity:1;fill-rule:nonzero;stroke:none" id="path106"></path></g><g id="g108" transform="translate(212.9523,65.6667)"><path d="M 0,0 C -1.106,2.711 -4.879,3.098 -6.77,0.968 -9.322,-1.906 -6.383,-6.604 -2.662,-5.517 -0.453,-4.872 0.87,-2.131 0,0" style="fill:#3c3973;fill-opacity:1;fill-rule:nonzero;stroke:none" id="path110"></path></g><g id="g112" transform="translate(307.028,120.1999)"><path d="m 0,0 c -2.104,12.787 -9,23.907 -17.012,34.187 -3.517,4.511 -6.21,9.642 -6.044,15.482 0.169,5.948 1.807,11.921 0.439,17.871 -3.018,13.122 -23.551,14.665 -31.393,5.175 -6.533,-7.907 -6.778,-19.096 -10.175,-28.384 -4.037,-11.033 -12.381,-16.88 -20.891,-24.745 -9.645,-8.915 -24.989,-20.87 -23.412,-35.772 0.315,-2.974 1.577,-5.908 3.801,-7.909 2.502,-2.252 5.958,-3.139 9.314,-3.41 5.747,-0.462 12.129,0.858 17.237,-2.519 5.378,-3.556 7.699,-10.253 13.031,-14.052 13.765,-9.807 36.636,-7.398 49.819,2.198 11.181,8.14 16.336,21.82 15.921,35.358 C 0.567,-4.298 0.35,-2.126 0,0" style="fill:#ff7b4a;fill-opacity:1;fill-rule:nonzero;stroke:none" id="path114"></path></g><g id="g116" transform="translate(251.4704,58.2263)"><path d="m 0,0 c -2.081,1.852 -4.037,3.93 -6.538,5.156 -2.501,1.228 -5.78,1.398 -7.86,-0.456 -1.889,-1.682 -2.259,-4.452 -2.464,-6.973 -0.65,-7.983 -0.802,-16.364 2.652,-23.589 0.568,-1.19 1.256,-2.366 2.295,-3.177 2.468,-1.925 6.003,-1.243 9.035,-0.469 6.041,1.544 12.082,3.088 18.122,4.632 2.199,0.562 4.438,1.141 6.363,2.343 1.926,1.202 3.523,3.149 3.725,5.41 0.227,2.556 -1.379,4.994 -3.474,6.476 -3.341,2.364 -6.915,1.84 -10.477,3.252 C 7.238,-5.753 3.307,-2.943 0,0" style="fill:#f75d75;fill-opacity:1;fill-rule:nonzero;stroke:none" id="path118"></path></g><g id="g120" transform="translate(244.4616,351.4235)"><path d="m 0,0 c -9.123,0.394 -13.442,-8.104 -13.202,-16.219 0.147,-4.936 1.697,-9.713 3.356,-14.363 4.834,-13.548 6.038,-27.545 4.748,-41.857 -1.422,-15.775 -10.652,-29.664 -15.297,-44.806 -1.533,-5 -2.572,-10.269 -1.878,-15.452 0.694,-5.184 3.335,-10.299 7.81,-13.007 3.005,-1.818 6.58,-2.437 10.082,-2.716 4.353,-0.348 8.734,-0.225 13.089,0.1 9.138,0.68 19.095,2.747 24.745,9.961 5.768,7.362 5.209,18.018 1.86,26.751 -3.517,9.172 -9.626,17.071 -14.697,25.485 -4.726,7.844 -6.115,18.387 -7.219,27.303 -1.148,9.286 1.031,18.43 2.496,27.545 1.21,7.524 2.292,15.798 -1.586,22.766 C 11.651,-3.736 5.707,-0.247 0,0" style="fill:#fcb62b;fill-opacity:1;fill-rule:nonzero;stroke:none" id="path122"></path></g><g id="g124" transform="translate(233.7882,209.0554)"><path d="M 0,0 C 0.371,-0.014 0.716,0.063 1.038,0.232 1.372,0.341 1.66,0.526 1.904,0.789 2.167,1.033 2.353,1.322 2.461,1.656 2.63,1.978 2.707,2.323 2.693,2.694 2.661,2.933 2.629,3.171 2.597,3.41 2.469,3.866 2.238,4.263 1.904,4.599 1.723,4.738 1.541,4.879 1.359,5.02 0.939,5.263 0.486,5.386 0,5.388 -0.371,5.401 -0.717,5.324 -1.038,5.155 -1.372,5.047 -1.661,4.861 -1.905,4.599 -2.167,4.354 -2.353,4.065 -2.461,3.731 -2.63,3.41 -2.708,3.064 -2.694,2.694 -2.662,2.455 -2.629,2.217 -2.598,1.978 -2.469,1.521 -2.239,1.125 -1.905,0.789 -1.723,0.649 -1.542,0.509 -1.36,0.368 -0.939,0.125 -0.486,0.002 0,0" style="fill:#ffffff;fill-opacity:1;fill-rule:nonzero;stroke:none" id="path126"></path></g><g id="g128" transform="translate(229.3712,221.3806)"><path d="M 0,0 C 3.75,0 3.755,5.826 0,5.826 -3.749,5.826 -3.755,0 0,0" style="fill:#ffffff;fill-opacity:1;fill-rule:nonzero;stroke:none" id="path130"></path></g><g id="g132" transform="translate(246.7677,223.3063)"><path d="M 0,0 C 3.873,0 3.879,6.02 0,6.02 -3.873,6.02 -3.879,0 0,0" style="fill:#ffffff;fill-opacity:1;fill-rule:nonzero;stroke:none" id="path134"></path></g><g id="g136" transform="translate(239.3541,217.1931)"><path d="M 0,0 C 3.789,0 3.795,5.888 0,5.888 -3.788,5.888 -3.794,0 0,0" style="fill:#ffffff;fill-opacity:1;fill-rule:nonzero;stroke:none" id="path138"></path></g><g id="g140" transform="translate(247.341,208.8806)"><path d="M 0,0 C 4.291,0 4.297,6.668 0,6.668 -4.291,6.668 -4.298,0 0,0" style="fill:#ffffff;fill-opacity:1;fill-rule:nonzero;stroke:none" id="path142"></path></g><g id="g144" transform="translate(257.5529,214.0261)"><path d="M 0,0 C 4.291,0 4.298,6.668 0,6.668 -4.291,6.668 -4.297,0 0,0" style="fill:#ffffff;fill-opacity:1;fill-rule:nonzero;stroke:none" id="path146"></path></g><g id="g148" transform="translate(247.3566,233.7839)"><path d="M 0,0 C 3.251,0 3.257,5.053 0,5.053 -3.251,5.053 -3.257,0 0,0" style="fill:#ffffff;fill-opacity:1;fill-rule:nonzero;stroke:none" id="path150"></path></g><g id="g152" transform="translate(236.1554,231.4977)"><path d="M 0,0 C 3.516,0 3.521,5.464 0,5.464 -3.516,5.464 -3.521,0 0,0" style="fill:#ffffff;fill-opacity:1;fill-rule:nonzero;stroke:none" id="path154"></path></g><g id="g156" transform="translate(257.8375,228.8083)"><path d="M 0,0 C -3.479,0 -3.485,-5.407 0,-5.407 3.48,-5.407 3.485,0 0,0" style="fill:#ffffff;fill-opacity:1;fill-rule:nonzero;stroke:none" id="path158"></path></g><g id="g160" transform="translate(279.1525,381.4474)"><path d="m 0,0 c -3.773,-2.335 -5.618,-7.177 -4.904,-11.556 0.213,-1.305 0.639,-2.6 1.435,-3.655 1.735,-2.299 4.863,-3.04 7.741,-3.12 1.699,-0.047 3.436,0.087 5.004,0.741 2.769,1.154 4.717,3.892 5.272,6.84 C 16.079,-2.627 7.642,4.729 0,0" style="fill:#157fc2;fill-opacity:1;fill-rule:nonzero;stroke:none" id="path162"></path></g><g id="g164" transform="translate(329.2076,393.1296)"><path d="m 0,0 c -1.095,6.89 -3.461,14.031 -8.641,18.953 -5.913,5.62 -14.515,6.793 -22.325,7.235 -9.923,0.562 -19.898,-0.775 -29.363,-3.782 -1.139,-0.362 -0.674,-7.501 -0.585,-10.093 0.095,-2.736 0.122,-5.478 0.411,-8.201 0.058,-0.542 0.469,-0.896 1.024,-0.78 4.724,0.982 9.893,0.822 14.708,0.622 4.206,-0.174 8.504,-0.47 12.568,-1.638 1.858,-0.533 3.675,-1.266 5.285,-2.35 1.715,-1.156 2.965,-2.525 4.003,-4.299 1.987,-3.396 2.54,-7.455 2.851,-11.313 0.446,-5.532 0.545,-11.077 0.723,-16.621 0.019,-0.614 0.511,-1.16 1.15,-1.15 4.695,0.072 9.422,-0.396 14.11,-0.664 1.467,-0.084 3.751,-0.662 4.486,1.067 0.33,0.775 0.23,1.775 0.261,2.597 0.043,1.134 0.086,2.269 0.125,3.403 C 1.098,-17.994 1.422,-8.951 0,0" style="fill:#3c3973;fill-opacity:1;fill-rule:nonzero;stroke:none" id="path166"></path></g><g id="g168" transform="translate(363.7887,367.8718)"><path d="m 0,0 c -0.181,2.176 -0.391,4.352 -0.635,6.522 -1.177,10.475 -2.524,21.02 -4.849,31.304 -3.044,13.458 -8.077,27.131 -18.777,36.386 -8.849,7.654 -19.93,11.627 -31.41,13.154 -11.563,1.538 -23.361,0.576 -34.636,-2.317 -1.352,-0.346 -2.637,-0.872 -3.97,-1.27 -1.235,-0.37 1.491,-15.098 1.775,-21.491 0.028,-0.632 0.572,-1.029 1.182,-0.901 8.078,1.694 16.42,2.428 24.665,1.854 8.093,-0.564 16.386,-1.98 24.015,-4.796 6.889,-2.542 12.113,-7.154 15.597,-13.597 3.487,-6.448 5.251,-13.795 6.439,-20.979 1.542,-9.333 1.828,-19.044 0.766,-28.445 -0.087,-0.771 0.715,-1.388 1.407,-1.407 l 13.23,-0.363 C -3.23,-6.4 -0.5,-7.156 -0.015,-4.625 0.273,-3.122 0.125,-1.511 0,0" style="fill:#157fc2;fill-opacity:1;fill-rule:nonzero;stroke:none" id="path170"></path></g><g id="g172" transform="translate(490.2457,342.2922)"><path d="m 0,0 c -2.555,3.001 -6.116,5.151 -10.057,5.626 -4.011,0.485 -7.954,-0.836 -11.318,-2.967 -7.236,-4.585 -11.726,-12.241 -18.814,-16.98 -3.292,-2.201 -7.343,-3.982 -11.37,-3.031 -3.264,0.771 -5.692,3.071 -7.051,6.091 -3.148,6.991 -0.316,14.494 4.133,20.165 2.681,3.417 5.859,6.409 8.964,9.429 3.255,3.165 6.432,6.411 9.473,9.782 12.28,13.614 22.578,29.569 26.272,47.764 1.801,8.867 2.3,18.607 0.068,27.453 -0.897,3.553 -3.202,6.914 -6.685,8.308 -3.74,1.499 -7.491,-0.058 -10.347,-2.583 -5.696,-5.035 -8.214,-12.746 -10.25,-19.827 -1.051,-3.655 -2.12,-7.301 -3.201,-10.947 -1.35,-4.557 -2.506,-9.184 -4.316,-13.591 -2.404,-5.851 -6.616,-11.915 -12.61,-14.442 -3.355,-1.034 -6.79,-0.422 -9.754,1.657 -3.602,2.528 -5.609,6.565 -6.575,10.762 -1.047,4.557 -1.085,9.355 -0.893,14.006 0.206,4.991 0.874,9.954 1.989,14.823 1.103,4.815 2.795,9.39 4.418,14.042 1.466,4.205 2.663,8.65 2.148,13.141 -0.459,3.989 -2.138,7.722 -5.406,10.177 -3.312,2.489 -7.598,3.36 -11.67,3.416 -7.407,0.101 -14.496,-2.744 -20.305,-7.232 -5.982,-4.622 -10.677,-10.882 -13.657,-17.815 -3.487,-8.111 -4.432,-17.113 -3.783,-25.867 1.45,-19.53 10.249,-37.23 17.443,-55.112 3.559,-8.849 6.759,-17.902 8.428,-27.319 1.509,-8.515 1.895,-18.616 -4.593,-25.283 -2.68,-2.753 -6.274,-4.54 -10.173,-4.332 -4.246,0.227 -8.135,2.703 -11.129,5.567 -3.359,3.214 -5.901,7.14 -8.694,10.825 -2.578,3.4 -5.419,6.535 -8.706,9.264 -12.516,10.394 -29.549,14.969 -45.531,11.611 -15.496,-3.256 -29.51,-13.68 -36.777,-27.791 -2.148,-4.17 -3.709,-8.721 -3.818,-13.448 -0.089,-3.819 0.848,-7.584 2.47,-11.025 3.27,-6.936 9.635,-12.539 16.485,-15.802 8.38,-3.994 17.783,-5.087 26.957,-5.422 10.207,-0.374 20.445,-0.253 30.658,-0.338 20.947,-0.174 41.892,-0.408 62.839,-0.607 19.172,-0.183 39.479,-1.433 57.693,5.681 7.559,2.952 14.692,7.238 20.318,13.142 6.09,6.391 9.931,14.492 11.376,23.182 C 6.093,-17.158 6.005,-7.056 0,0" style="fill:#f75d75;fill-opacity:1;fill-rule:nonzero;stroke:none" id="path174"></path></g><g id="g176" transform="translate(336.36,152.6686)"><path d="m 0,0 c -1.708,10.608 -9.999,24.209 -20.471,28.81 -5.139,2.257 -10.548,0.834 -13.068,-4.237 -2.344,-4.718 -1.003,-9.894 2.234,-13.797 1.653,-1.994 3.653,-3.657 5.467,-5.495 1.876,-1.899 3.461,-4.029 4.791,-6.342 2.744,-4.773 4.331,-10.158 5.585,-15.489 0.531,-2.258 0.861,-4.744 2.263,-6.667 1.548,-2.126 4.058,-2.591 6.449,-1.64 C -2.284,-23.081 2.11,-13.112 0,0" style="fill:#3c3973;fill-opacity:1;fill-rule:nonzero;stroke:none" id="path178"></path></g><g id="g180" transform="translate(350.2599,98.32)"><path d="M 0,0 C -0.266,3.72 -1.368,7.393 -4.144,10.018 -9.063,14.67 -18.015,15.393 -22.7,9.953 -26.073,6.037 -25.642,0.76 -25.76,-4.06 c -0.135,-5.543 -1.614,-10.544 -4.889,-15.08 -4.477,-6.2 -10.982,-10.027 -17.421,-13.868 -6.388,-3.81 -12.552,-8.56 -14.519,-16.108 -0.872,-3.347 -0.668,-6.942 1.034,-10.001 1.771,-3.182 4.877,-5.247 8.3,-6.297 4.133,-1.268 8.414,-1.11 12.655,-0.551 3.895,0.515 7.813,1.16 11.6,2.221 3.64,1.019 7.249,2.474 10.3,4.742 3.262,2.423 5.679,5.637 7.615,9.182 4.095,7.502 6.826,15.798 8.541,24.151 0.875,4.261 1.499,8.575 1.939,12.902 C -0.179,-8.568 0.301,-4.221 0,0" style="fill:#157fc2;fill-opacity:1;fill-rule:nonzero;stroke:none" id="path182"></path></g><g id="g184" transform="translate(411.6393,203.8649)"><path d="m 0,0 c 0.151,0.229 0.303,0.456 0.455,0.684 8.184,12.214 24.842,28.279 14.203,44.171 -5.686,8.495 -17.001,10.051 -26.126,11.624 -24.404,4.206 -121.462,12.036 -99.334,-40.662 4.429,-10.549 12.759,-18.915 20.335,-27.103 15.71,-16.978 32.279,-33.838 42.297,-55.244 7.022,-15.004 9.213,-31.603 6.044,-47.956 -1.727,-8.909 -5.306,-17.226 -8.37,-25.694 -2.858,-7.898 -7.182,-18.073 -4.019,-26.452 3.61,-9.561 14.446,-14.442 23.764,-15.206 9.564,-0.784 19.282,2.428 26.575,8.854 7.312,6.441 12.03,15.847 13.512,25.594 2.788,18.347 -6.129,36.278 -14.059,52.048 -8.444,16.791 -13.745,35.959 -11.77,55.098 C -14.941,-25.208 -8.17,-12.294 0,0" style="fill:#4ac7c5;fill-opacity:1;fill-rule:nonzero;stroke:none" id="path186"></path></g><g id="g188" transform="translate(347.6066,222.5573)"><path d="m 0,0 c -0.892,-1.608 -1.627,-3.681 -0.579,-5.191 1.307,-1.883 4.226,-1.362 6.274,-0.332 7.352,3.698 13.316,11.403 21.543,11.204 6.016,-0.147 10.911,-4.57 16.026,-7.741 8.98,-5.565 21.058,-7.406 30.016,-1.805 3.881,2.425 6.872,6.011 10.355,8.978 3.484,2.968 7.889,5.415 12.424,4.803 5.848,-0.789 9.749,-6.174 14.275,-9.959 4.887,-4.086 11.43,-6.57 17.688,-5.384 9.864,1.87 16.713,12.061 26.665,13.384 9.507,1.265 18.121,-5.983 27.669,-6.881 0.872,-0.082 1.817,-0.092 2.538,0.404 0.923,0.635 1.177,1.893 1.119,3.011 -0.164,3.217 -2.257,6.087 -4.865,7.976 -2.608,1.889 -5.707,2.956 -8.755,3.997 -5.294,1.808 -10.776,3.641 -16.35,3.165 -7.201,-0.615 -13.443,-4.954 -19.931,-8.138 -6.488,-3.183 -14.6,-5.168 -20.673,-1.249 -4.272,2.756 -6.506,7.821 -10.457,11.02 -4.56,3.689 -11.015,4.439 -16.7,3.003 C 82.595,22.827 77.582,19.443 73.174,15.574 69.678,12.505 66.309,8.991 61.883,7.561 55.043,5.349 47.772,8.669 41.339,11.877 33.896,15.589 26.191,18.521 18.121,15.289 10.525,12.248 4.016,7.246 0,0" style="fill:#fcb62b;fill-opacity:1;fill-rule:nonzero;stroke:none" id="path190"></path></g><g id="g192" transform="translate(347.6066,190.2819)"><path d="M 0,0 C -0.892,-1.608 -1.627,-3.681 -0.579,-5.191 0.728,-7.074 3.647,-6.553 5.695,-5.523 13.047,-1.826 19.011,5.88 27.238,5.68 33.254,5.534 38.149,1.11 43.264,-2.06 c 8.98,-5.566 21.058,-7.406 30.016,-1.806 3.881,2.426 6.872,6.012 10.355,8.979 3.484,2.967 7.889,5.414 12.424,4.803 5.848,-0.789 9.749,-6.175 14.275,-9.96 4.887,-4.086 11.43,-6.57 17.688,-5.384 9.864,1.871 16.713,12.062 26.665,13.385 9.507,1.264 18.121,-5.984 27.669,-6.882 0.872,-0.081 1.817,-0.091 2.538,0.405 0.923,0.635 1.177,1.893 1.119,3.011 -0.164,3.217 -2.257,6.086 -4.865,7.976 -2.608,1.888 -5.707,2.956 -8.755,3.997 -5.294,1.807 -10.776,3.641 -16.35,3.165 -7.201,-0.615 -13.443,-4.955 -19.931,-8.138 -6.488,-3.183 -14.6,-5.168 -20.673,-1.25 -4.272,2.756 -6.506,7.821 -10.457,11.02 -4.56,3.689 -11.015,4.44 -16.7,3.003 C 82.595,22.827 77.582,19.442 73.174,15.573 69.678,12.505 66.309,8.991 61.883,7.56 55.043,5.348 47.772,8.668 41.339,11.876 33.896,15.589 26.191,18.521 18.121,15.289 10.525,12.248 4.016,7.246 0,0" style="fill:#fcb62b;fill-opacity:1;fill-rule:nonzero;stroke:none" id="path194"></path></g><g id="g196" transform="translate(431.1188,113.2468)"><path d="m 0,0 c 0.827,0.291 91.034,5.818 91.034,5.818 0,0 -12.966,46.836 -46.345,45.672 C 11.311,50.326 0,0 0,0" style="fill:#157fc2;fill-opacity:1;fill-rule:nonzero;stroke:none" id="path198"></path></g><g id="g200" transform="translate(438.0153,68.738)"><path d="m 0,0 76.689,4.363 c 0,0 1.453,61.717 -32.827,63.418 C -3.034,70.108 0,0 0,0" style="fill:#fcb62b;fill-opacity:1;fill-rule:nonzero;stroke:none" id="path202"></path></g><g id="g204" transform="translate(435.2565,52.5124)"><path d="m 0,0 c 0,0 0.938,-18.685 6.544,-19.784 17.184,-3.371 63.374,-6.311 72.789,1.138 4.313,3.413 3.329,19.198 3.329,19.198 z" style="fill:#3c3973;fill-opacity:1;fill-rule:nonzero;stroke:none" id="path206"></path></g><g id="g208" transform="translate(699.3942,446.8762)"><path d="m 0,0 c 0,0 -28.138,27.31 -86.896,28.138 -58.759,0.827 -74.483,-37.656 -77.793,-52.552 -3.311,-14.897 10.758,-57.517 66.207,-48 55.448,9.518 46.758,16.966 82.344,9.931 35.586,-7.035 40.966,8.69 42.207,18.207 C 27.311,-34.759 18.207,-11.586 0,0" style="fill:#4ac7c5;fill-opacity:1;fill-rule:nonzero;stroke:none" id="path210"></path></g><g id="g212" transform="translate(522.9117,444.1223)"><path d="m 0,0 c -8.333,0.314 -16.7,0.537 -25.038,0.397 -1.375,-0.023 -1.715,-1.637 -1.015,-2.419 4.683,-10.355 10.889,-20.191 18.216,-28.869 0.559,-0.662 1.605,-0.094 1.625,0.674 0.264,9.681 3.239,19.533 7.333,28.263 C 1.541,-1.059 1.041,-0.04 0,0" style="fill:#fcb62b;fill-opacity:1;fill-rule:nonzero;stroke:none" id="path214"></path></g><g id="g216" transform="translate(557.1012,416.2233)"><path d="m 0,0 c 0.707,2.136 1.959,4.203 2.939,6.23 0.971,2.007 1.921,4.024 2.849,6.051 1.829,3.996 3.569,8.031 5.223,12.104 0.254,0.627 -0.4,1.462 -1.062,1.394 -4.102,-0.425 -8.188,-0.54 -12.307,-0.297 -2.065,0.122 -4.127,0.316 -6.176,0.601 -1.817,0.253 -3.988,1.002 -5.785,0.482 -0.535,-0.154 -0.871,-0.974 -0.363,-1.371 0.069,-0.052 0.143,-0.091 0.213,-0.14 1.298,-4.364 3.006,-8.639 5.034,-12.713 2.16,-4.337 4.527,-8.686 7.382,-12.609 C -1.483,-1.05 -0.319,-0.966 0,0" style="fill:#fcb62b;fill-opacity:1;fill-rule:nonzero;stroke:none" id="path218"></path></g><g id="g220" transform="translate(610.778,444.0324)"><path d="m 0,0 c -3.8,-0.562 -7.618,-0.571 -11.453,-0.45 -1.801,0.057 -3.6,0.221 -5.392,0.406 -1.941,0.199 -3.908,0.608 -5.86,0.587 -2.472,-0.027 -1.639,-1.777 -1.45,-2.208 1.962,-4.472 4.961,-8.57 7.539,-12.709 2.606,-4.182 5.247,-8.343 7.874,-12.513 0.568,-0.901 1.727,-0.616 2.094,0.274 3.349,8.155 6.086,16.552 8.131,25.129 C 1.715,-0.514 0.901,0.133 0,0" style="fill:#fcb62b;fill-opacity:1;fill-rule:nonzero;stroke:none" id="path222"></path></g><g id="g224" transform="translate(589.149,402.9743)"><path d="m 0,0 c -1.747,0.441 -3.671,0.54 -5.458,0.741 -1.873,0.211 -3.748,0.389 -5.629,0.503 -2.008,0.122 -4.112,0.328 -6.115,0.102 -1.057,-0.118 -1.427,-1.09 -1.111,-1.802 -0.005,-0.055 10e-4,-0.113 0.022,-0.173 0.725,-2.045 1.228,-4.165 1.977,-6.202 0.759,-2.065 1.624,-4.096 2.496,-6.117 1.77,-4.105 3.664,-8.082 5.804,-12.004 0.504,-0.923 1.68,-0.548 2.02,0.264 1.47,3.517 3.009,6.984 4.253,10.591 1.216,3.526 2.25,7.105 3.096,10.738 C 1.698,-1.888 1.739,-0.439 0,0" style="fill:#fcb62b;fill-opacity:1;fill-rule:nonzero;stroke:none" id="path226"></path></g><g id="g228" transform="translate(547.8942,401.1921)"><path d="m 0,0 c -6.921,0.79 -18.155,2.512 -24.361,1.408 -2.072,-0.368 10.477,-22.758 16.06,-32.947 0.401,-0.731 1.98,-0.588 2.125,0.235 1.78,10.038 4.294,19.908 7.221,29.747 C 1.223,-0.961 0.818,-0.093 0,0" style="fill:#fcb62b;fill-opacity:1;fill-rule:nonzero;stroke:none" id="path230"></path></g><g id="g232" transform="translate(511.1989,393.7341)"><path d="m 0,0 c -3.342,-0.104 -6.595,-0.553 -9.964,-0.366 -3.327,0.185 -10.306,0.616 -10.451,0.586 -0.346,0.105 -0.827,-0.132 -0.801,-0.474 -0.528,-0.678 3.643,-9.72 5.274,-13.487 0.923,-2.136 1.839,-4.275 2.803,-6.399 0.888,-1.957 1.702,-3.932 3.307,-5.575 0.698,-0.716 1.956,-0.218 2.267,0.498 1.714,3.957 3.413,7.95 4.715,12.017 0.628,1.961 1.158,3.948 1.774,5.915 0.654,2.086 1.017,4.348 1.919,6.365 C 1.038,-0.482 0.531,0.017 0,0" style="fill:#fcb62b;fill-opacity:1;fill-rule:nonzero;stroke:none" id="path234"></path></g><g id="g236" transform="translate(572.6168,364.8708)"><path d="m 0,0 c -3.476,0.104 -6.939,0.33 -10.415,0.438 -3.353,0.106 -6.919,0.369 -10.236,-0.083 -0.783,-0.106 -1.143,-0.509 -1.199,-0.964 -0.193,-0.19 -0.306,-0.431 -0.234,-0.698 1.339,-4.941 3.958,-9.728 6.322,-14.423 2.356,-4.677 5.074,-9.258 7.913,-13.77 0.453,-0.719 2.149,-0.589 2.319,0.233 0.509,2.456 0.71,4.88 1.388,7.324 0.621,2.239 1.222,4.481 1.82,6.724 1.24,4.651 2.42,9.306 3.554,13.973 C 1.389,-0.605 0.881,-0.026 0,0" style="fill:#fcb62b;fill-opacity:1;fill-rule:nonzero;stroke:none" id="path238"></path></g><g id="g240" transform="translate(610.4469,311.6921)"><path d="m 0,0 c -4.348,7.583 -9.513,15.091 -16.471,18.418 -5.932,2.835 -9.388,0.296 -12.667,-4.637 -5.058,-7.612 -15.396,-13.966 -24.406,-9.123 -3.493,1.878 -6.077,5.098 -8.11,8.503 -4.59,7.689 -10.872,24.442 -22.911,19.71 -3.141,-1.234 -5.643,-3.675 -7.883,-6.2 -8.327,-9.386 -14.161,-20.804 -17.854,-32.748 -3.332,-10.776 -5.196,-22.267 -5.224,-33.566 -0.014,-5.067 1.104,-10.426 4.59,-14.105 5.126,-5.411 13.509,-5.488 20.293,-7.164 16.898,-4.171 44.006,-11.53 35.004,-34.75 -2.275,-5.871 -7.319,-9.14 -6.468,-16.174 0.594,-4.921 3.843,-8.946 7.914,-11.574 5.913,-3.819 13.69,-4.224 20.512,-4.548 6.94,-0.33 13.965,-0.769 20.893,-0.084 14.197,1.402 29.036,6.983 37.558,19.005 12.875,18.163 9.966,41.128 1.1,60.352 C 20.12,-36.217 13.739,-24.041 6.777,-12.207 4.662,-8.611 2.462,-4.293 0,0" style="fill:#157fc2;fill-opacity:1;fill-rule:nonzero;stroke:none" id="path242"></path></g><g id="g244" transform="translate(543.8151,271.0095)"><path d="m 0,0 c -0.329,0.349 -0.709,0.654 -1.08,0.908 -3.117,2.133 -7.363,1.886 -10.866,1.007 -1.977,-0.496 -7.06,-3.064 -3.591,-5.365 1.26,-0.836 2.808,-1.121 4.288,-1.253 1.626,-0.144 3.272,-0.038 4.901,0.006 1.599,0.044 3.292,-0.068 4.868,0.237 1.331,0.257 2.653,1.224 2.413,2.737 C 0.828,-1.071 0.464,-0.491 0,0" style="fill:#ffffff;fill-opacity:1;fill-rule:nonzero;stroke:none" id="path246"></path></g><g id="g248" transform="translate(571.7721,271.5993)"><path d="m 0,0 c -0.297,1.167 -1.13,2.095 -2.18,2.656 -2.452,1.309 -5.388,1.303 -8.072,0.911 -2.207,-0.322 -5.206,-0.699 -6.415,-2.855 -0.692,-1.234 -0.14,-2.648 1.062,-3.288 1.27,-0.677 2.927,-0.658 4.323,-0.782 1.747,-0.155 3.499,-0.247 5.253,-0.275 1.399,-0.023 3.05,-0.209 4.384,0.313 C -0.253,-2.776 0.361,-1.427 0,0" style="fill:#ffffff;fill-opacity:1;fill-rule:nonzero;stroke:none" id="path250"></path></g><g id="g252" transform="translate(587.3912,269.3874)"><path d="M 0,0 C 1.489,-0.147 2.989,-0.242 4.486,-0.213 5.685,-0.191 7.107,-0.232 8.215,0.298 9.344,0.838 9.908,2.102 9.689,3.319 9.471,4.536 8.453,5.512 7.385,6.042 5.304,7.075 2.899,7.417 0.609,7.04 -1.454,6.7 -4.44,5.697 -5.079,3.441 -5.922,0.47 -1.94,0.192 0,0" style="fill:#ffffff;fill-opacity:1;fill-rule:nonzero;stroke:none" id="path254"></path></g><g id="g256" transform="translate(606.1793,271.5485)"><path d="M 0,0 C -0.005,-0.013 -0.034,-0.022 0,0 M -0.013,0.11 V 0.105 c -0.03,0.051 -0.038,0.065 0,0.005 m 5.646,-3.287 c 1.085,0.063 2.265,0.156 3.299,0.512 0.971,0.336 1.857,0.995 2.09,2.049 C 11.755,2.696 7.49,3.272 5.222,3.245 3.063,3.22 -1.687,3.333 -2.326,0.507 -2.894,-2.001 0.21,-2.765 2.016,-3.014 3.216,-3.18 4.422,-3.248 5.633,-3.177" style="fill:#ffffff;fill-opacity:1;fill-rule:nonzero;stroke:none" id="path258"></path></g><g id="g260" transform="translate(577.1608,255.3337)"><path d="m 0,0 c -2.396,1.484 -5.771,1.104 -8.428,0.537 -1.549,-0.33 -3.609,-0.848 -4.592,-2.086 -1.564,-1.973 1.117,-3.433 2.976,-3.68 2.19,-0.291 4.534,-0.399 6.783,-0.162 1.717,0.182 4.126,0.534 4.663,2.337 C 1.756,-1.872 1.072,-0.664 0,0" style="fill:#ffffff;fill-opacity:1;fill-rule:nonzero;stroke:none" id="path262"></path></g><g id="g264" transform="translate(602.944,256.7536)"><path d="M 0,0 C -0.898,0.233 -1.869,0.313 -2.749,0.305 -4.687,0.287 -6.801,-0.03 -8.588,-0.74 c -1.024,-0.408 -2.192,-1.006 -2.416,-2.096 -0.281,-1.367 1.161,-1.932 2.317,-2.278 2.488,-0.747 5.172,-1.046 7.783,-0.859 0.999,0.072 2.053,0.224 2.89,0.767 0.956,0.621 1.402,1.631 1.092,2.681 C 2.665,-1.123 1.423,-0.369 0,0" style="fill:#ffffff;fill-opacity:1;fill-rule:nonzero;stroke:none" id="path266"></path></g><g id="g268" transform="translate(622.8092,254.2009)"><path d="M 0,0 C 0.038,-0.019 0.062,-0.034 0.06,-0.038 0.048,-0.051 0.024,-0.03 0,0 m -0.095,0.316 v 0.002 c 0.001,0 0.002,0 0,-0.002 m 2.34,1 C 1.249,2.997 -2.177,3.571 -4.047,3.564 -6.086,3.557 -8.729,2.449 -8.506,0.25 c 0.192,-1.887 2.561,-2.027 4.166,-2.16 1.016,-0.083 2.034,-0.138 3.054,-0.162 1.038,-0.024 2.075,0.051 2.902,0.685 0.852,0.653 1.168,1.795 0.629,2.703" style="fill:#ffffff;fill-opacity:1;fill-rule:nonzero;stroke:none" id="path270"></path></g><g id="g272" transform="translate(590.8492,235.9059)"><path d="M 0,0 C 0,0.001 -0.001,0.002 -0.001,0.003 0.015,-0.016 0.013,-0.015 0,0 m -0.154,0.186 v 0 c -0.012,0.013 -0.024,0.028 -0.031,0.036 0.01,-0.013 0.021,-0.025 0.031,-0.036 m 0.136,-0.164 c -0.001,0 -0.002,0 -0.002,-10e-4 -0.002,0.006 -0.003,0.006 -0.005,0.011 0.003,-0.004 0.004,-0.007 0.007,-0.01 m -0.591,3.01 c -1.532,0.239 -3.243,-0.04 -4.632,-0.369 -1.795,-0.424 -5.428,-1.267 -4.751,-3.628 0.26,-0.909 1.175,-1.43 2.091,-1.697 1.04,-0.304 2.207,-0.39 3.29,-0.452 1.153,-0.069 2.325,-0.054 3.469,0.108 1.967,0.278 3.762,1.604 3.588,3.583 -0.055,0.627 -0.312,1.158 -0.844,1.568 -0.637,0.488 -1.4,0.76 -2.211,0.887" style="fill:#ffffff;fill-opacity:1;fill-rule:nonzero;stroke:none" id="path274"></path></g><g id="g276" transform="translate(619.1989,237.3102)"><path d="m 0,0 c -1.026,0.357 -2.219,0.495 -3.074,0.6 -2.23,0.274 -8.582,0.615 -8.421,-2.676 0.078,-1.59 2.463,-2.146 3.793,-2.465 2.031,-0.486 4.17,-0.595 6.245,-0.306 1.604,0.225 4.024,1.185 3.495,3.091 C 1.792,-0.87 0.971,-0.337 0,0" style="fill:#ffffff;fill-opacity:1;fill-rule:nonzero;stroke:none" id="path278"></path></g><g id="g280" transform="translate(724.8434,352.7033)"><path d="m 0,0 c -0.79,2.38 -2.652,4.531 -5.399,4.07 -3.024,-0.507 -4.614,-3.847 -5.814,-6.309 -1.59,-3.262 -2.986,-6.597 -4.283,-9.985 -2.629,-6.867 -4.983,-13.852 -8.032,-20.55 -1.507,-3.31 -3.194,-6.547 -5.138,-9.623 -1.017,-1.609 -2.101,-3.183 -3.278,-4.679 -0.849,-1.08 -2.42,-3.171 -4.035,-2.502 -1.107,0.457 -1.206,1.968 -1.182,2.992 0.037,1.643 0.603,3.196 1.094,4.747 1.281,4.058 2.691,8.073 4.14,12.074 2.87,7.925 5.998,15.772 8.518,23.82 2.472,7.894 4.314,16.052 5.007,24.306 0.345,4.124 0.315,8.282 -0.1,12.4 -0.269,2.674 -0.376,7.001 -3.586,7.909 -2.779,0.787 -4.556,-1.946 -5.302,-4.21 -0.497,-1.509 -0.585,-3.111 -0.789,-4.676 -0.258,-1.985 -0.559,-3.963 -0.896,-5.935 -1.337,-7.833 -3.21,-15.567 -5.685,-23.119 -2.495,-7.617 -5.601,-15.03 -9.247,-22.168 -0.884,-1.731 -1.767,-3.479 -2.754,-5.155 -0.448,-0.761 -2.016,-2.848 -3.259,-2.7 -1.251,2.127 -1.254,4.941 -1.232,7.319 0.076,7.926 0.667,15.851 1.439,23.737 1.544,15.736 3.53,31.52 3.102,47.363 -0.107,3.981 -0.361,7.965 -0.862,11.916 -0.398,3.141 -1.106,6.479 -3.489,8.757 -2.305,2.204 -5.656,2.964 -8.469,1.243 -2.521,-1.542 -4.225,-4.316 -5.249,-7.018 -2.224,-5.864 -1.317,-12.447 -0.422,-18.48 1.18,-7.954 2.188,-15.929 2.941,-23.936 0.845,-8.983 1.239,-18.027 1.401,-27.045 0.08,-4.431 0.114,-8.864 0.07,-13.294 -0.007,-0.671 -0.021,-1.341 -0.032,-2.011 -0.037,-0.092 -0.057,-0.199 -0.043,-0.326 0.015,-0.14 0.02,-0.287 0.031,-0.431 -0.019,-0.969 -0.035,-1.938 -0.053,-2.908 -0.152,-1.538 -0.472,-3.088 -0.891,-4.42 -0.421,-1.336 -1.545,-2.946 -3.139,-2.766 -1.525,0.172 -2.375,1.889 -2.899,3.138 -1.499,3.578 -2.544,7.45 -3.535,11.195 -1,3.782 -1.795,7.616 -2.445,11.473 -2.681,15.92 -2.797,32.113 -4.562,48.134 -0.307,2.781 -1.029,5.968 -3.186,7.939 -2.405,2.196 -5.83,1.611 -7.86,-0.796 -2.382,-2.824 -3.016,-6.739 -3.145,-10.317 -0.143,-3.995 0.109,-8.033 0.384,-12.017 1.125,-16.336 4.545,-32.697 10.288,-48.037 1.396,-3.728 2.911,-7.416 4.53,-11.053 1.704,-3.827 3.746,-7.566 4.959,-11.592 0.492,-1.638 0.433,-3.486 -1.714,-3.395 -1.527,0.064 -3.064,0.802 -4.412,1.468 -2.903,1.434 -5.547,3.418 -7.763,5.778 -10.418,11.085 -12.123,26.971 -15.314,41.147 -0.803,3.563 -1.465,7.498 -3.223,10.739 -1.384,2.55 -4.051,4.737 -7.098,3.618 -2.786,-1.024 -3.825,-4.143 -4.183,-6.831 -0.492,-3.706 -0.395,-7.586 -0.252,-11.314 0.3,-7.767 1.566,-15.594 4.527,-22.813 2.775,-6.768 6.939,-12.799 11.843,-18.2 4.937,-5.436 10.544,-10.214 16.262,-14.803 3.079,-2.472 6.264,-4.842 9.101,-7.596 2.744,-2.663 4.98,-5.726 6.838,-9.062 3.854,-6.921 6.44,-14.651 8.293,-22.33 1.917,-7.941 2.883,-16.079 2.895,-24.248 0.005,-4.016 -0.482,-7.994 -0.558,-12 -0.064,-3.286 0.732,-6.764 3.749,-8.55 2.403,-1.422 5.561,-1.226 7.175,1.254 0.883,1.357 1.097,3.013 1.261,4.586 0.204,1.967 0.31,3.944 0.354,5.92 0.344,15.704 -3.52,32.363 3.683,47.116 6.107,12.508 17.348,21.293 25.714,32.148 9.098,11.803 14.579,26.236 15.686,41.095 C 0.713,-6.618 1.024,-3.084 0,0" style="fill:#3c3973;fill-opacity:1;fill-rule:nonzero;stroke:none" id="path282"></path></g><g id="g284" transform="translate(611.7594,114.3434)"><path d="m 0,0 c -0.434,8.581 -1.612,17.12 -3.399,25.526 0.034,0.094 0.054,0.195 0.036,0.313 -0.829,5.276 -2.473,10.434 -4.275,15.455 -1.508,4.201 -3.632,8.314 -6.481,11.766 -2.735,3.311 -6.41,5.966 -10.711,6.705 -4.573,0.785 -9.32,-0.309 -13.406,-2.406 -7.774,-3.99 -13.159,-11.646 -15.919,-19.772 -1.704,-5.016 -2.519,-10.295 -2.906,-15.565 -0.405,-5.514 -0.11,-10.962 0.012,-16.477 0.241,-10.855 0.773,-21.849 2.249,-32.613 1.147,-8.357 3.48,-17.202 10.645,-22.432 6.993,-5.104 16.769,-5.006 24.372,-1.362 7.96,3.814 13.615,11.323 16.604,19.466 C 0.481,-21.423 0.529,-10.474 0,0" style="fill:#ff7b4a;fill-opacity:1;fill-rule:nonzero;stroke:none" id="path286"></path></g><g id="g288" transform="translate(675.8229,157.6345)"><path d="m 0,0 c -1.141,5.808 -2.424,11.73 -4.407,17.293 -1.288,3.61 -2.924,7.311 -5.296,10.327 -1.572,2.733 -3.607,5.132 -6.359,6.945 -8.912,5.873 -20.457,1.37 -26.637,-6.62 -7.291,-9.424 -8.57,-21.791 -9.167,-33.497 -0.663,-12.999 -1.611,-26.063 -1.613,-39.085 -0.004,-11.913 1.246,-24.209 6.395,-34.992 4.705,-9.854 13.985,-18.518 25.15,-16.958 10.581,1.479 17.452,11.367 20.509,21.363 1.795,5.867 2.69,12.03 3.46,18.123 0.802,6.331 1.264,12.705 1.377,19.091 C 3.639,-25.255 2.453,-12.49 0,0" style="fill:#fcb62b;fill-opacity:1;fill-rule:nonzero;stroke:none" id="path290"></path></g><g id="g292" transform="translate(578.9908,113.8015)"><path d="m 0,0 c -0.358,2.458 -0.961,5.065 -2.846,6.83 -1.636,1.532 -3.843,2.265 -6.018,2.619 -5.841,0.955 -11.793,1.072 -17.697,0.823 -6.369,-0.269 -15.546,0.571 -19.766,-5.407 -1.269,-1.799 -1.819,-4.026 -1.926,-6.225 -0.151,-3.105 0.302,-6.438 0.917,-9.482 0.415,-2.054 1.23,-4.409 2.871,-5.811 3.324,-2.841 8.56,-2.097 12.567,-1.958 5.696,0.197 11.393,0.425 17.091,0.584 2.798,0.077 5.583,0.184 8.36,0.564 2.162,0.297 4.536,0.521 5.57,2.727 0.952,2.03 1.181,4.672 1.266,6.886 C 0.488,-5.262 0.373,-2.566 0,0" style="fill:#4ac7c5;fill-opacity:1;fill-rule:nonzero;stroke:none" id="path294"></path></g><g id="g296" transform="translate(635.8424,124.4489)"><path d="M 0,0 C 0.105,0 0.106,0.164 0,0.164 -0.105,0.164 -0.105,0 0,0" style="fill:#4ac7c5;fill-opacity:1;fill-rule:nonzero;stroke:none" id="path298"></path></g><g id="g300" transform="translate(651.1823,113.5651)"><path d="m 0,0 c -1.489,9.459 -10.805,11.732 -19.279,11.83 -4.405,0.052 -8.815,-0.168 -13.182,-0.748 -3.833,-0.51 -9.114,-0.825 -12.344,-3.129 -1.751,-1.25 -2.53,-3.169 -2.837,-5.238 -0.365,-2.472 -0.374,-5.016 -0.124,-7.498 0.405,-4.029 1.21,-9.396 5.163,-11.519 2.016,-1.082 4.378,-1.362 6.612,-1.657 2.718,-0.358 5.449,-0.61 8.187,-0.747 5.393,-0.27 10.81,-0.101 16.174,0.513 4.259,0.485 8.4,1.621 10.387,5.799 C 0.519,-8.688 0.628,-3.986 0,0" style="fill:#4ac7c5;fill-opacity:1;fill-rule:nonzero;stroke:none" id="path302"></path></g><g id="g304" transform="translate(721.4576,266.0163)"><path d="m 0,0 c -0.941,5.435 -3.073,11.831 -8.446,13.082 -3.59,0.835 -7.374,-1.193 -9.613,-4.123 -2.238,-2.929 -3.221,-6.607 -3.999,-10.211 -3.258,-15.115 -3.754,-30.673 -4.075,-46.131 -0.783,-37.65 -0.604,-75.319 0.534,-112.961 0.282,-9.294 0.606,-18.741 -1.733,-27.741 -2.339,-9 -7.778,-17.66 -16.2,-21.602 -5.22,-2.444 -11.117,-2.904 -16.868,-3.276 -33.137,-2.141 -66.384,-2.585 -99.566,-1.326 -6.133,0.232 -12.494,0.484 -18.162,-1.868 -5.668,-2.354 -10.425,-8.134 -9.478,-14.197 0.867,-5.56 6.676,-9.669 12.282,-9.183 5.605,0.486 10.436,5.076 11.8,10.535 -0.055,-6.592 5.393,-12.777 11.939,-13.555 6.546,-0.777 13.291,3.959 14.782,10.38 2.381,-6.77 8.443,-11.593 15.615,-11.347 7.172,0.245 11.887,5.539 13.8,12.456 1.184,-6.723 7.753,-12.063 14.576,-11.847 6.824,0.215 13.042,5.957 13.8,12.741 2.082,-6.709 7.156,-11.496 14.158,-10.935 7.002,0.56 13.223,6.413 14.21,13.368 0.751,-5.452 7.538,-11.281 13.039,-11.413 5.501,-0.133 14.163,3.049 13.005,11.541 2.616,-3.993 5.706,-8.324 10.381,-9.289 5.281,-1.092 10.567,2.825 12.868,7.701 2.303,4.876 2.329,10.475 2.31,15.868 C 0.782,-161.167 3.251,-18.751 0,0" style="fill:#f75d75;fill-opacity:1;fill-rule:nonzero;stroke:none" id="path306"></path></g></g></g></g></svg> 